<svg width="25" height="24" viewBox="0 0 25 24" fill="none" xmlns="http://www.w3.org/2000/svg">
<g clip-path="url(#clip0_314_702)">
<path d="M12.8001 2.16276C16.0061 2.16276 16.3824 2.17705 17.6496 2.23422C18.8215 2.28662 19.4551 2.48194 19.8791 2.64867C20.4412 2.8678 20.8413 3.12505 21.2606 3.54426C21.6798 3.96348 21.9418 4.36364 22.1562 4.92576C22.3181 5.34974 22.5182 5.98333 22.5706 7.15522C22.6278 8.42239 22.6421 8.79873 22.6421 12.0048C22.6421 15.2108 22.6278 15.5871 22.5706 16.8543C22.5182 18.0262 22.3229 18.6598 22.1562 19.0838C21.937 19.6459 21.6798 20.0461 21.2606 20.4653C20.8413 20.8845 20.4412 21.1465 19.8791 21.3609C19.4551 21.5228 18.8215 21.7229 17.6496 21.7753C16.3824 21.8325 16.0061 21.8468 12.8001 21.8468C9.59402 21.8468 9.21768 21.8325 7.95051 21.7753C6.77862 21.7229 6.14503 21.5276 5.72105 21.3609C5.15893 21.1417 4.75877 20.8845 4.33955 20.4653C3.92034 20.0461 3.65833 19.6459 3.44396 19.0838C3.28199 18.6598 3.08191 18.0262 3.02951 16.8543C2.97234 15.5871 2.95805 15.2108 2.95805 12.0048C2.95805 8.79873 2.97234 8.42239 3.02951 7.15522C3.08191 5.98333 3.27722 5.34974 3.44396 4.92576C3.66309 4.36364 3.92034 3.96348 4.33955 3.54426C4.75877 3.12505 5.15893 2.86304 5.72105 2.64867C6.14503 2.4867 6.77862 2.28662 7.95051 2.23422C9.21768 2.17229 9.59878 2.16276 12.8001 2.16276ZM12.8001 0C9.54162 0 9.13193 0.0142914 7.85047 0.0714569C6.57377 0.128622 5.702 0.333466 4.93979 0.628821C4.149 0.933704 3.48207 1.34815 2.81514 2.01509C2.1482 2.68202 1.73852 3.35371 1.42887 4.13974C1.13351 4.90195 0.928671 5.77372 0.871506 7.05518C0.81434 8.33188 0.800049 8.74156 0.800049 12C0.800049 15.2584 0.81434 15.6681 0.871506 16.9496C0.928671 18.2263 1.13351 19.0981 1.42887 19.865C1.73375 20.6558 2.1482 21.3227 2.81514 21.9897C3.48207 22.6566 4.15376 23.0663 4.93979 23.3759C5.702 23.6713 6.57377 23.8761 7.85524 23.9333C9.1367 23.9905 9.54162 24.0048 12.8048 24.0048C16.068 24.0048 16.4729 23.9905 17.7544 23.9333C19.0311 23.8761 19.9029 23.6713 20.6699 23.3759C21.4606 23.0711 22.1276 22.6566 22.7945 21.9897C23.4614 21.3227 23.8711 20.6511 24.1808 19.865C24.4761 19.1028 24.681 18.231 24.7381 16.9496C24.7953 15.6681 24.8096 15.2632 24.8096 12C24.8096 8.7368 24.7953 8.33188 24.7381 7.05042C24.681 5.77372 24.4761 4.90195 24.1808 4.13497C23.8759 3.34418 23.4614 2.67725 22.7945 2.01032C22.1276 1.34339 21.4559 0.933704 20.6699 0.624057C19.9076 0.328702 19.0359 0.123859 17.7544 0.0666931C16.4682 0.0142914 16.0585 0 12.8001 0Z" fill="#F5D600"/>
<path d="M12.8001 2.16276C16.0061 2.16276 16.3824 2.17705 17.6496 2.23422C18.8215 2.28662 19.4551 2.48194 19.8791 2.64867C20.4412 2.8678 20.8413 3.12505 21.2606 3.54426C21.6798 3.96348 21.9418 4.36364 22.1562 4.92576C22.3181 5.34974 22.5182 5.98333 22.5706 7.15522C22.6278 8.42239 22.6421 8.79873 22.6421 12.0048C22.6421 15.2108 22.6278 15.5871 22.5706 16.8543C22.5182 18.0262 22.3229 18.6598 22.1562 19.0838C21.937 19.6459 21.6798 20.0461 21.2606 20.4653C20.8413 20.8845 20.4412 21.1465 19.8791 21.3609C19.4551 21.5228 18.8215 21.7229 17.6496 21.7753C16.3824 21.8325 16.0061 21.8468 12.8001 21.8468C9.59402 21.8468 9.21768 21.8325 7.95051 21.7753C6.77862 21.7229 6.14503 21.5276 5.72105 21.3609C5.15893 21.1417 4.75877 20.8845 4.33955 20.4653C3.92034 20.0461 3.65833 19.6459 3.44396 19.0838C3.28199 18.6598 3.08191 18.0262 3.02951 16.8543C2.97234 15.5871 2.95805 15.2108 2.95805 12.0048C2.95805 8.79873 2.97234 8.42239 3.02951 7.15522C3.08191 5.98333 3.27722 5.34974 3.44396 4.92576C3.66309 4.36364 3.92034 3.96348 4.33955 3.54426C4.75877 3.12505 5.15893 2.86304 5.72105 2.64867C6.14503 2.4867 6.77862 2.28662 7.95051 2.23422C9.21768 2.17229 9.59878 2.16276 12.8001 2.16276Z" fill="#F5D600"/>
<path d="M12.8001 5.84058C9.39874 5.84058 6.63574 8.59881 6.63574 12.0049C6.63574 15.411 9.39398 18.1693 12.8001 18.1693C16.2062 18.1693 18.9644 15.411 18.9644 12.0049C18.9644 8.59881 16.2062 5.84058 12.8001 5.84058ZM12.8001 16.0017C10.5897 16.0017 8.79851 14.2106 8.79851 12.0002C8.79851 9.78976 10.5897 7.99857 12.8001 7.99857C15.0105 7.99857 16.8017 9.78976 16.8017 12.0002C16.8017 14.2106 15.0105 16.0017 12.8001 16.0017Z" fill="black"/>
<path d="M19.2073 7.03139C20.0019 7.03139 20.646 6.38727 20.646 5.59272C20.646 4.79817 20.0019 4.15405 19.2073 4.15405C18.4128 4.15405 17.7687 4.79817 17.7687 5.59272C17.7687 6.38727 18.4128 7.03139 19.2073 7.03139Z" fill="black"/>
</g>
<defs>
<clipPath id="clip0_314_702">
<rect width="24" height="24" fill="white" transform="translate(0.800049)"/>
</clipPath>
</defs>
</svg>
