<svg width="25" height="24" viewBox="0 0 25 24" fill="none" xmlns="http://www.w3.org/2000/svg">
<g clip-path="url(#clip0_314_703)">
<path d="M22.8283 0H2.37164C1.90177 0 1.45114 0.186657 1.11889 0.518909C0.786633 0.851161 0.599976 1.30179 0.599976 1.77167V22.2283C0.599976 22.6982 0.786633 23.1488 1.11889 23.4811C1.45114 23.8133 1.90177 24 2.37164 24H22.8283C23.2982 24 23.7488 23.8133 24.0811 23.4811C24.4133 23.1488 24.6 22.6982 24.6 22.2283V1.77167C24.6 1.30179 24.4133 0.851161 24.0811 0.518909C23.7488 0.186657 23.2982 0 22.8283 0ZM7.75331 20.445H4.14498V8.98333H7.75331V20.445ZM5.94664 7.395C5.53734 7.3927 5.13789 7.2692 4.79871 7.04009C4.45953 6.81098 4.19582 6.48653 4.04085 6.10769C3.88589 5.72885 3.84662 5.31259 3.92801 4.91145C4.00939 4.51032 4.20778 4.14228 4.49813 3.85378C4.78848 3.56529 5.15779 3.36927 5.55944 3.29046C5.96109 3.21165 6.37709 3.25359 6.75493 3.41099C7.13277 3.56838 7.45551 3.83417 7.68244 4.17481C7.90937 4.51546 8.0303 4.91569 8.02998 5.325C8.03384 5.59903 7.98249 5.87104 7.87899 6.1248C7.77549 6.37857 7.62196 6.6089 7.42755 6.80207C7.23314 6.99523 7.00182 7.14728 6.7474 7.24915C6.49298 7.35102 6.22065 7.40062 5.94664 7.395ZM21.0533 20.455H17.4466V14.1933C17.4466 12.3467 16.6616 11.7767 15.6483 11.7767C14.5783 11.7767 13.5283 12.5833 13.5283 14.24V20.455H9.91998V8.99167H13.39V10.58H13.4366C13.785 9.875 15.005 8.67 16.8666 8.67C18.88 8.67 21.055 9.865 21.055 13.365L21.0533 20.455Z" fill="#F5D600"/>
</g>
<defs>
<clipPath id="clip0_314_703">
<rect width="24" height="24" fill="white" transform="translate(0.599976)"/>
</clipPath>
</defs>
</svg>
