<svg width="119" height="27" viewBox="0 0 119 27" fill="none" xmlns="http://www.w3.org/2000/svg">
<path d="M8.84703 12.7825H7.87059C5.42061 12.7825 3.66302 12.3327 2.59781 11.4332C1.5326 10.5337 1 9.02467 1 6.90609V5.87639C1 3.78148 1.5326 2.27836 2.59781 1.36702C3.66302 0.455672 5.42061 0 7.87059 0H8.84703C10.8472 0 12.38 0.301809 13.4452 0.905426C14.5104 1.50904 15.2087 2.47365 15.5401 3.79924H12.2024C11.9776 3.33765 11.5929 3.01217 11.0485 2.8228C10.504 2.63343 9.68736 2.53874 8.59848 2.53874H8.08363C7.00658 2.53874 6.17217 2.67485 5.58039 2.94707C5.00044 3.20746 4.60987 3.58028 4.40866 4.06554C4.21929 4.53897 4.12461 5.20768 4.12461 6.07168V6.72856C4.12461 7.36768 4.17787 7.89437 4.28439 8.30861C4.39091 8.71103 4.5862 9.07201 4.87025 9.39158C5.15431 9.6993 5.55672 9.92418 6.07749 10.0662C6.59826 10.1964 7.26697 10.2615 8.08363 10.2615H8.65174C10.072 10.2615 11.0662 10.078 11.6343 9.71114C12.2024 9.3324 12.5042 8.67552 12.5397 7.7405H7.87059V5.30828H15.6466V7.08363C15.6466 9.11936 15.1022 10.5811 14.0133 11.4687C12.9244 12.3446 11.2023 12.7825 8.84703 12.7825Z" fill="white"/>
<path d="M20.7054 8.21985V12.6049H17.634V0.177534H26.1557C27.8837 0.177534 29.1027 0.426083 29.8129 0.923179C30.5349 1.40844 30.8958 2.23102 30.8958 3.39091V3.8525C30.8958 4.77568 30.7124 5.46215 30.3455 5.9119C29.9786 6.34982 29.3868 6.61612 28.5701 6.7108V6.81733C29.4223 6.93568 30.02 7.18423 30.3632 7.56297C30.7183 7.92987 30.8958 8.6341 30.8958 9.67563V12.6049H27.8067V9.92418C27.8067 9.23771 27.641 8.78204 27.3096 8.55716C26.9901 8.33229 26.3036 8.21985 25.2502 8.21985H20.7054ZM25.268 2.62751H20.7054V5.78763H25.7296C26.5107 5.78763 27.0493 5.6811 27.3451 5.46806C27.6529 5.24319 27.8067 4.84669 27.8067 4.27858V4.18981C27.8067 3.56253 27.6351 3.14828 27.2919 2.94707C26.9487 2.73403 26.274 2.62751 25.268 2.62751Z" fill="white"/>
<path d="M39.9365 12.7825H38.8358C36.5397 12.7825 34.9478 12.386 34.0601 11.593C33.1724 10.7882 32.7286 9.38566 32.7286 7.38544V0.177534H35.871V7.22566C35.871 8.37371 36.0958 9.16078 36.5456 9.58686C36.9954 10.0129 37.8534 10.226 39.1199 10.226H39.6525C40.907 10.226 41.7592 10.0129 42.2089 9.58686C42.6587 9.16078 42.8836 8.37371 42.8836 7.22566V0.177534H46.0259V7.38544C46.0259 9.38566 45.5762 10.7882 44.6767 11.593C43.789 12.386 42.209 12.7825 39.9365 12.7825Z" fill="white"/>
<path d="M51.1498 8.75245V12.6049H48.0784V0.177534H56.4403C58.192 0.177534 59.4465 0.485261 60.204 1.10071C60.9615 1.71617 61.3402 2.78729 61.3402 4.31409V4.70466C61.3402 6.1131 60.9556 7.14281 60.1863 7.79377C59.4169 8.43289 58.1683 8.75245 56.4403 8.75245H51.1498ZM55.9254 2.60976H51.1498V6.32023H55.9432C56.8664 6.32023 57.4818 6.19004 57.7895 5.92965C58.0973 5.66927 58.2511 5.20768 58.2511 4.54488V4.3851C58.2511 3.71047 58.0914 3.24888 57.7718 3.00033C57.4522 2.73995 56.8368 2.60976 55.9254 2.60976Z" fill="white"/>
<path d="M70.412 12.7825H69.4355C66.9856 12.7825 65.228 12.3268 64.1628 11.4155C63.0975 10.5041 62.5649 8.98916 62.5649 6.87059V5.9119C62.5649 3.79332 63.0975 2.27836 64.1628 1.36702C65.228 0.455672 66.9856 0 69.4355 0H70.412C72.8619 0 74.6195 0.455672 75.6847 1.36702C76.75 2.27836 77.2826 3.79332 77.2826 5.9119V6.87059C77.2826 8.98916 76.75 10.5041 75.6847 11.4155C74.6195 12.3268 72.8619 12.7825 70.412 12.7825ZM69.6663 10.2437H70.1989C71.2878 10.2319 72.1222 10.0899 72.7022 9.81766C73.2821 9.54544 73.6668 9.17262 73.8561 8.69919C74.0573 8.21393 74.158 7.5393 74.158 6.6753V6.12494C74.158 5.46215 74.1047 4.92362 73.9982 4.50938C73.8917 4.09513 73.6964 3.73414 73.4123 3.42642C73.1283 3.10685 72.7258 2.88198 72.2051 2.75179C71.6843 2.60976 71.0156 2.53874 70.1989 2.53874H69.6663C68.0685 2.53874 67.0033 2.81096 66.4707 3.3554C65.9499 3.88801 65.6896 4.81119 65.6896 6.12494V6.6753C65.6896 7.32626 65.7369 7.85886 65.8316 8.27311C65.9381 8.68736 66.1334 9.05426 66.4174 9.37382C66.7015 9.68155 67.1039 9.90643 67.6247 10.0485C68.1573 10.1786 68.8378 10.2437 69.6663 10.2437Z" fill="white"/>
<path d="M97.3286 0.177534V12.6049H94.2395V7.65174H86.57V12.6049H83.4986V0.177534H86.57V5.11299H94.2395V0.177534H97.3286Z" fill="white"/>
<path d="M117.997 0.177534V12.6049H114.943V2.75179H114.819L110.256 12.6049H107.327L102.818 2.75179H102.693V12.6049H99.6397V0.177534H105.001L108.889 8.69919H109.014L112.937 0.177534H117.997Z" fill="white"/>
<path d="M1 19.5561H2.24657L4.09237 24.9885L5.92505 19.5561H7.15849V25.9814H6.33182V22.1892C6.33182 22.0579 6.33474 21.8407 6.34057 21.5375C6.3464 21.2342 6.34932 20.9091 6.34932 20.5621L4.51664 25.9814H3.65498L1.80918 20.5621V20.7589C1.80918 20.9164 1.81209 21.1569 1.81792 21.4806C1.82667 21.8013 1.83105 22.0375 1.83105 22.1892V25.9814H1V19.5561Z" fill="white"/>
<path d="M15.3649 23.3483L14.3895 20.5096L13.3529 23.3483H15.3649ZM13.9346 19.5561H14.9187L17.25 25.9814H16.2965L15.6448 24.0568H13.1035L12.4081 25.9814H11.5158L13.9346 19.5561Z" fill="white"/>
<path d="M21.6248 19.5561H22.6527L25.8982 24.761V19.5561H26.7248V25.9814H25.7494L22.4559 20.7808V25.9814H21.6248V19.5561Z" fill="white"/>
<path d="M36.3571 19.5561V20.3215H34.192V25.9814H33.3085V20.3215H31.1434V19.5561H36.3571Z" fill="white"/>
<path d="M40.8238 19.5561H45.5082V20.3434H41.6723V22.2941H45.2196V23.0377H41.6723V25.2159H45.5738V25.9814H40.8238V19.5561Z" fill="white"/>
<path d="M50.2986 19.5561H51.3264L54.5719 24.761V19.5561H55.3986V25.9814H54.4232L51.1296 20.7808V25.9814H50.2986V19.5561Z" fill="white"/>
<path d="M60.5519 19.5561H61.4311V25.9814H60.5519V19.5561Z" fill="white"/>
<path d="M66.4095 19.5561H67.6561L69.5019 24.9885L71.3345 19.5561H72.568V25.9814H71.7413V22.1892C71.7413 22.0579 71.7442 21.8407 71.7501 21.5375C71.7559 21.2342 71.7588 20.9091 71.7588 20.5621L69.9261 25.9814H69.0645L67.2187 20.5621V20.7589C67.2187 20.9164 67.2216 21.1569 67.2274 21.4806C67.2362 21.8013 67.2405 22.0375 67.2405 22.1892V25.9814H66.4095V19.5561Z" fill="white"/>
<path d="M77.6732 19.5561H78.5524V25.9814H77.6732V19.5561Z" fill="white"/>
<path d="M83.6358 19.5561H88.3203V20.3434H84.4843V22.2941H88.0316V23.0377H84.4843V25.2159H88.3859V25.9814H83.6358V19.5561Z" fill="white"/>
<path d="M93.1106 19.5561H94.1385L97.3839 24.761V19.5561H98.2106V25.9814H97.2352L93.9416 20.7808V25.9814H93.1106V19.5561Z" fill="white"/>
<path d="M107.843 19.5561V20.3215H105.678V25.9814H104.794V20.3215H102.629V19.5561H107.843Z" fill="white"/>
<path d="M114.842 19.3811C115.976 19.3811 116.816 19.7456 117.361 20.4746C117.787 21.0432 118 21.7707 118 22.6572C118 23.6165 117.757 24.414 117.27 25.0497C116.698 25.7962 115.883 26.1694 114.825 26.1694C113.836 26.1694 113.059 25.8429 112.493 25.1897C111.989 24.5598 111.737 23.7638 111.737 22.8015C111.737 21.9326 111.952 21.189 112.384 20.5708C112.938 19.7777 113.757 19.3811 114.842 19.3811ZM114.93 25.3909C115.696 25.3909 116.25 25.1168 116.592 24.5686C116.936 24.0175 117.108 23.3847 117.108 22.6703C117.108 21.9151 116.909 21.3071 116.513 20.8464C116.119 20.3856 115.58 20.1553 114.895 20.1553C114.23 20.1553 113.687 20.3842 113.267 20.842C112.848 21.2969 112.638 21.969 112.638 22.8584C112.638 23.5699 112.817 24.1706 113.176 24.6604C113.537 25.1474 114.122 25.3909 114.93 25.3909Z" fill="white"/>
<path d="M1 19.5561H2.24657L4.09237 24.9885L5.92505 19.5561H7.15849V25.9814H6.33182V22.1892C6.33182 22.0579 6.33474 21.8407 6.34057 21.5375C6.3464 21.2342 6.34932 20.9091 6.34932 20.5621L4.51664 25.9814H3.65498L1.80918 20.5621V20.7589C1.80918 20.9164 1.81209 21.1569 1.81792 21.4806C1.82667 21.8013 1.83105 22.0375 1.83105 22.1892V25.9814H1V19.5561Z" stroke="white" stroke-width="0.417857"/>
<path d="M15.3649 23.3483L14.3895 20.5096L13.3529 23.3483H15.3649ZM13.9346 19.5561H14.9187L17.25 25.9814H16.2965L15.6448 24.0568H13.1035L12.4081 25.9814H11.5158L13.9346 19.5561Z" stroke="white" stroke-width="0.417857"/>
<path d="M21.6248 19.5561H22.6527L25.8982 24.761V19.5561H26.7248V25.9814H25.7494L22.4559 20.7808V25.9814H21.6248V19.5561Z" stroke="white" stroke-width="0.417857"/>
<path d="M36.3571 19.5561V20.3215H34.192V25.9814H33.3085V20.3215H31.1434V19.5561H36.3571Z" stroke="white" stroke-width="0.417857"/>
<path d="M40.8238 19.5561H45.5082V20.3434H41.6723V22.2941H45.2196V23.0377H41.6723V25.2159H45.5738V25.9814H40.8238V19.5561Z" stroke="white" stroke-width="0.417857"/>
<path d="M50.2986 19.5561H51.3264L54.5719 24.761V19.5561H55.3986V25.9814H54.4232L51.1296 20.7808V25.9814H50.2986V19.5561Z" stroke="white" stroke-width="0.417857"/>
<path d="M60.5519 19.5561H61.4311V25.9814H60.5519V19.5561Z" stroke="white" stroke-width="0.417857"/>
<path d="M66.4095 19.5561H67.6561L69.5019 24.9885L71.3345 19.5561H72.568V25.9814H71.7413V22.1892C71.7413 22.0579 71.7442 21.8407 71.7501 21.5375C71.7559 21.2342 71.7588 20.9091 71.7588 20.5621L69.9261 25.9814H69.0645L67.2187 20.5621V20.7589C67.2187 20.9164 67.2216 21.1569 67.2274 21.4806C67.2362 21.8013 67.2405 22.0375 67.2405 22.1892V25.9814H66.4095V19.5561Z" stroke="white" stroke-width="0.417857"/>
<path d="M77.6732 19.5561H78.5524V25.9814H77.6732V19.5561Z" stroke="white" stroke-width="0.417857"/>
<path d="M83.6358 19.5561H88.3203V20.3434H84.4843V22.2941H88.0316V23.0377H84.4843V25.2159H88.3859V25.9814H83.6358V19.5561Z" stroke="white" stroke-width="0.417857"/>
<path d="M93.1106 19.5561H94.1385L97.3839 24.761V19.5561H98.2106V25.9814H97.2352L93.9416 20.7808V25.9814H93.1106V19.5561Z" stroke="white" stroke-width="0.417857"/>
<path d="M107.843 19.5561V20.3215H105.678V25.9814H104.794V20.3215H102.629V19.5561H107.843Z" stroke="white" stroke-width="0.417857"/>
<path d="M114.842 19.3811C115.976 19.3811 116.816 19.7456 117.361 20.4746C117.787 21.0432 118 21.7707 118 22.6572C118 23.6165 117.757 24.414 117.27 25.0497C116.698 25.7962 115.883 26.1694 114.825 26.1694C113.836 26.1694 113.059 25.8429 112.493 25.1897C111.989 24.5598 111.737 23.7638 111.737 22.8015C111.737 21.9326 111.952 21.189 112.384 20.5708C112.938 19.7777 113.757 19.3811 114.842 19.3811ZM114.93 25.3909C115.696 25.3909 116.25 25.1168 116.592 24.5686C116.936 24.0175 117.108 23.3847 117.108 22.6703C117.108 21.9151 116.909 21.3071 116.513 20.8464C116.119 20.3856 115.58 20.1553 114.895 20.1553C114.23 20.1553 113.687 20.3842 113.267 20.842C112.848 21.2969 112.638 21.969 112.638 22.8584C112.638 23.5699 112.817 24.1706 113.176 24.6604C113.537 25.1474 114.122 25.3909 114.93 25.3909Z" stroke="white" stroke-width="0.417857"/>
</svg>
