<svg width="25" height="24" viewBox="0 0 25 24" fill="none" xmlns="http://www.w3.org/2000/svg">
<g clip-path="url(#clip0_314_705)">
<path d="M0.199951 24L1.89622 17.8403C0.847515 16.0323 0.297372 13.9848 0.303103 11.8916C0.303103 5.3327 5.667 0 12.2515 0C15.4492 0 18.4521 1.23764 20.7042 3.48479C22.9621 5.73194 24.2057 8.72054 24.1999 11.8973C24.1999 18.4563 18.836 23.789 12.2458 23.789H12.2401C10.2401 23.789 8.27444 23.2871 6.52659 22.3403L0.199951 24ZM6.83032 20.1901L7.19135 20.4068C8.7157 21.308 10.4636 21.7814 12.2458 21.7871H12.2515C17.7243 21.7871 22.1827 17.3555 22.1827 11.903C22.1827 9.26236 21.1512 6.78137 19.2773 4.91065C17.4034 3.03992 14.9048 2.01331 12.2515 2.01331C6.77874 2.00761 2.32029 6.43917 2.32029 11.8916C2.32029 13.7567 2.84178 15.5761 3.83892 17.1502L4.07387 17.5266L3.07101 21.1711L6.83032 20.1901Z" fill="#F5D600"/>
<path d="M0.199951 24L1.89622 17.8403C0.847515 16.0323 0.297372 13.9848 0.303103 11.8916C0.303103 5.3327 5.667 0 12.2515 0C15.4492 0 18.4521 1.23764 20.7042 3.48479C22.9621 5.73194 24.2057 8.72054 24.1999 11.8973C24.1999 18.4563 18.836 23.789 12.2458 23.789H12.2401C10.2401 23.789 8.27444 23.2871 6.52659 22.3403L0.199951 24ZM6.83032 20.1901L7.19135 20.4068C8.7157 21.308 10.4636 21.7814 12.2458 21.7871H12.2515C17.7243 21.7871 22.1827 17.3555 22.1827 11.903C22.1827 9.26236 21.1512 6.78137 19.2773 4.91065C17.4034 3.03992 14.9048 2.01331 12.2515 2.01331C6.77874 2.00761 2.32029 6.43917 2.32029 11.8916C2.32029 13.7567 2.84178 15.5761 3.83892 17.1502L4.07387 17.5266L3.07101 21.1711L6.83032 20.1901Z" fill="#F5D600"/>
<path fill-rule="evenodd" clip-rule="evenodd" d="M9.26571 6.91843C9.04221 6.42223 8.80726 6.41082 8.59522 6.40512C8.4233 6.39941 8.22273 6.39941 8.02216 6.39941C7.82158 6.39941 7.50067 6.47356 7.2256 6.77014C6.95052 7.06671 6.18262 7.78535 6.18262 9.25113C6.18262 10.7112 7.25425 12.1257 7.40325 12.3253C7.55224 12.5249 9.47201 15.6218 12.5035 16.8139C15.025 17.8063 15.5408 17.6066 16.0852 17.5553C16.6296 17.504 17.8502 16.8367 18.1024 16.1409C18.3488 15.445 18.3488 14.8519 18.2743 14.7264C18.1998 14.6009 17.9992 14.5268 17.7012 14.3785C17.4032 14.2302 15.9362 13.5116 15.6611 13.4089C15.386 13.312 15.1855 13.2606 14.9906 13.5572C14.7901 13.8538 14.217 14.5211 14.0451 14.7207C13.8732 14.9203 13.6955 14.9431 13.3975 14.7949C13.0995 14.6466 12.1368 14.3329 10.9964 13.3177C10.1081 12.5306 9.5064 11.5553 9.33448 11.2587C9.16256 10.9622 9.31729 10.8025 9.46628 10.6542C9.59809 10.523 9.76428 10.3063 9.91327 10.1352C10.0623 9.96405 10.1138 9.83858 10.2113 9.63896C10.3087 9.43934 10.2628 9.26824 10.1883 9.11995C10.1138 8.97736 9.52932 7.50588 9.26571 6.91843Z" fill="#F5D600"/>
</g>
<defs>
<clipPath id="clip0_314_705">
<rect width="24" height="24" fill="white" transform="translate(0.199951)"/>
</clipPath>
</defs>
</svg>
