<svg width="56" height="56" viewBox="0 0 56 56" fill="none" xmlns="http://www.w3.org/2000/svg">
<path d="M26.2469 23.2175L20.6356 13.4984C20.0643 12.507 19.91 11.3294 20.2066 10.2244C20.5032 9.11932 21.2264 8.17723 22.2173 7.60516C23.2082 7.03308 24.3856 6.87781 25.4909 7.17348C26.5962 7.46914 27.5389 8.19155 28.1118 9.18194L36.7446 24.1344" stroke="black" stroke-width="3.03295" stroke-linecap="round" stroke-linejoin="round"/>
<path d="M19.6343 29.0293L11.4331 14.8244C11.1491 14.3335 10.9647 13.7914 10.8903 13.2292C10.8159 12.6669 10.8531 12.0955 10.9996 11.5477C11.1462 10.9998 11.3993 10.4862 11.7444 10.0361C12.0896 9.58612 12.5201 9.20854 13.0112 8.92497C13.5024 8.6414 14.0446 8.4574 14.6069 8.38349C15.1692 8.30958 15.7406 8.34721 16.2883 8.49423C16.8361 8.64124 17.3495 8.89476 17.7992 9.2403C18.249 9.58584 18.6262 10.0166 18.9094 10.508L26.2472 23.2176" stroke="black" stroke-width="3.03295" stroke-linecap="round" stroke-linejoin="round"/>
<path d="M33.5846 35.9272C32.4399 33.9444 32.1296 31.588 32.7222 29.3765C33.3148 27.1649 34.7616 25.2793 36.7445 24.1346L34.5863 20.3964C34.3023 19.9055 34.1178 19.3634 34.0434 18.8012C33.9691 18.239 34.0062 17.6676 34.1528 17.1197C34.2993 16.5718 34.5524 16.0582 34.8976 15.6082C35.2427 15.1581 35.6732 14.7806 36.1644 14.497C36.6555 14.2134 37.1978 14.0294 37.7601 13.9555C38.3224 13.8816 38.8937 13.9192 39.4415 14.0662C39.9892 14.2133 40.5027 14.4668 40.9524 14.8123C41.4021 15.1579 41.7793 15.5886 42.0625 16.08L46.3789 23.5563C47.5132 25.5199 48.2495 27.6877 48.5459 29.9359C48.8423 32.1842 48.6928 34.4688 48.1062 36.6592C47.5195 38.8497 46.5071 40.9032 45.1267 42.7023C43.7463 44.5014 42.025 46.0111 40.0612 47.1449C38.0973 48.2787 35.9293 49.0146 33.681 49.3105C31.4327 49.6063 29.1482 49.4564 26.9578 48.8692C24.7675 48.2821 22.7143 47.2692 20.9154 45.8884C19.1166 44.5076 17.6074 42.786 16.474 40.8219L8.27279 26.617C7.70154 25.6257 7.54725 24.4481 7.84384 23.3431C8.14044 22.238 8.86363 21.2959 9.8545 20.7238C10.8454 20.1518 12.0228 19.9965 13.1281 20.2922C14.2334 20.5878 15.1761 21.3102 15.749 22.3006L19.6338 29.0293" stroke="black" stroke-width="3.03295" stroke-linecap="round" stroke-linejoin="round"/>
<path d="M17.8519 52.0473C14.9254 50.0168 12.486 47.3623 10.7095 44.2751" stroke="black" stroke-width="3.03295" stroke-linecap="round" stroke-linejoin="round"/>
<path d="M38.3345 6.94043C40.3044 6.94017 42.2397 7.45873 43.9455 8.44394C45.6514 9.42916 47.0677 10.8463 48.052 12.5527" stroke="black" stroke-width="3.03295" stroke-linecap="round" stroke-linejoin="round"/>
</svg>
