<svg width="32" height="32" viewBox="0 0 32 32" fill="none" xmlns="http://www.w3.org/2000/svg">
<path d="M15.2928 8.92891L17.7677 6.45403C18.2783 5.94292 18.8847 5.53742 19.5521 5.26071C20.2195 4.98399 20.9348 4.84148 21.6573 4.84131C22.3798 4.84114 23.0953 4.98332 23.7628 5.25973C24.4303 5.53613 25.0368 5.94135 25.5477 6.45222C26.0586 6.9631 26.4638 7.56962 26.7402 8.23714C27.0166 8.90466 27.1588 9.6201 27.1586 10.3426C27.1584 11.0651 27.0159 11.7804 26.7392 12.4478C26.4625 13.1152 26.057 13.7216 25.5459 14.2322L22.0104 17.7677C21.4996 18.2785 20.8933 18.6836 20.226 18.96C19.5587 19.2364 18.8435 19.3787 18.1213 19.3787C17.399 19.3787 16.6838 19.2364 16.0165 18.96C15.3492 18.6836 14.7429 18.2785 14.2322 17.7677" stroke="white" stroke-width="2" stroke-linecap="round" stroke-linejoin="round"/>
<path d="M16.7071 23.0708L14.2322 25.5457C13.7216 26.0568 13.1152 26.4623 12.4478 26.739C11.7804 27.0158 11.0651 27.1583 10.3426 27.1584C9.6201 27.1586 8.90466 27.0164 8.23714 26.74C7.56962 26.4636 6.9631 26.0584 6.45222 25.5475C5.94135 25.0367 5.53613 24.4301 5.25973 23.7626C4.98332 23.0951 4.84114 22.3796 4.84131 21.6572C4.84148 20.9347 4.98399 20.2193 5.26071 19.5519C5.53742 18.8845 5.94292 18.2782 6.45403 17.7675L9.98957 14.232C10.5003 13.7213 11.1066 13.3162 11.7739 13.0398C12.4412 12.7634 13.1564 12.6211 13.8787 12.6211C14.6009 12.6211 15.3161 12.7634 15.9834 13.0398C16.6507 13.3162 17.257 13.7213 17.7677 14.232" stroke="white" stroke-width="2" stroke-linecap="round" stroke-linejoin="round"/>
</svg>
