<svg id="Capa_1" data-name="Capa 1" xmlns="http://www.w3.org/2000/svg" viewBox="0 0 95.32 74.09"><defs><style>.cls-1{fill:#f5d600;}</style></defs><title>Logo en blanco</title><path class="cls-1" d="M61.76,0c0,.14.07.23.12.35.78,1.44,1.54,2.89,2.35,4.33a.59.59,0,0,1,0,.67Q59,15.69,53.7,26a.73.73,0,0,0,0,.73c1.09,2,2.15,4,3.21,5.94a1.47,1.47,0,0,0,.11.21L68.19,10.62c.41.83.83,1.63,1.24,2.43s.65,1.33,1,2a.81.81,0,0,1,0,.87c-1.39,2.8-2.77,5.57-4.15,8.37-3,6.1-6,12.21-9,18.31-1.25,2.55-2.49,5.07-3.76,7.62-.16.34-.16.34-.41,0-.9-1.12-1.77-2.25-2.67-3.37-.14-.19-.19-.32-.07-.53,1.54-3.19,3.06-6.38,4.6-9.57a.61.61,0,0,0,0-.64c-1.06-2-2.11-4.11-3.17-6.15,0-.09-.1-.16-.17-.3-.2.39-.41.74-.59,1.08-1.8,3.31-3.57,6.61-5.37,9.89-.16.3-.16.3-.37,0-.94-1.19-1.89-2.38-2.85-3.55a.41.41,0,0,1,0-.55c3.36-6.4,6.75-12.81,10.11-19.21Q57,8.85,61.47.37c.06-.12.16-.21.13-.37Z"/><path class="cls-1" d="M0,73.44H0c.12.11.26,0,.39,0H95c.28,0,.37,0,.35.35s-.23.25-.39.25H.46A1.44,1.44,0,0,1,0,74Z"/><path d="M34.47,51.85l2-3.7,4.9-9.26a3.44,3.44,0,0,0,.21-.39c4.07,5.14,8.13,10.23,12.23,15.37Q62.92,35.49,72,17.18a2.42,2.42,0,0,0,.48,1.38Q83.44,40.31,94.37,62c0,.1.12.17.1.28H88.36a.36.36,0,0,1-.34-.18Q82.53,52,77,41.94c-1.57-2.85-3.11-5.71-4.68-8.56a.58.58,0,0,0-.11-.18c-1.08,2.08-2.14,4.17-3.22,6.24Q63.26,50.56,57.53,61.69a.39.39,0,0,1-.37.23c-1.68,0-3.39.09-5.07.16a.55.55,0,0,1-.48-.23C48.89,58.23,46.2,54.62,43.46,51c-.3.55-.63,1.07-.93,1.6l-4.35,7.67A2.15,2.15,0,0,0,38,60c-.85-1.88-1.68-3.76-2.51-5.64C35.19,53.5,34.8,52.7,34.47,51.85Z"/><path class="cls-1" d="M34.47,51.85c.33.85.72,1.65,1.09,2.48.83,1.88,1.68,3.76,2.51,5.64,0,.09.09.16.14.25.23.53.46,1.06.69,1.61-.44-.25-.65-.71-1-1,0-.11-.09-.16-.16-.23-.85-1-1.73-2-2.58-3S33.6,55.84,32.86,55c-.43-.53-.87-1.06-1.33-1.56a.39.39,0,0,0-.23-.28l-.42-.48L20.89,41c-.23-.25-.23-.25.11-.34,1.75-.5,3.5-1,5.25-1.49.19,0,.26-.09.16-.3-.59-1.31-1.17-2.61-1.75-3.92a1.22,1.22,0,0,0-.3-.64c-.5-1.17-1-2.37-1.54-3.54C22,28.86,21.16,27,20.31,25.08a3,3,0,0,0-.44-1c-.34-.83-.71-1.65-1.06-2.46,0,0,0,0,.05,0,.65.69,1.27,1.38,1.91,2.07a7.88,7.88,0,0,0,.74.8c1,1.05,1.91,2.11,2.88,3.16,1.56,1.73,3.15,3.45,4.72,5.17.18.23.37.43.57.64l3.07,3.37q1.86,2,3.73,4.06c.16.19.09.23-.09.3l-5.3,2.41c-.23.09-.3.16-.18.44,1.17,2.59,2.32,5.2,3.5,7.82C34.43,51.8,34.45,51.83,34.47,51.85Z"/><path d="M18.12,16.15l2.49,3.65c.16.23.32.46.48.71a.2.2,0,0,0,.28.09,23.47,23.47,0,0,1,4-1.15c.21,0,.51,0,.62-.13s.07-.42.1-.65c0-.71.09-1.44.13-2.15s.12-1.65.16-2.48c0-.16.07-.18.21-.18,2.14,0,4.29,0,6.43,0,.27,0,.32.09.32.32.09,1.29.18,2.6.28,3.88l.06,1c0,.14,0,.19.19.21a22.37,22.37,0,0,1,4.42,1.19.32.32,0,0,0,.46-.13c.92-1.4,1.87-2.78,2.79-4.18.09-.14.14-.14.27-.07l5.65,3.3c.16.1.11.19.07.3Q46.45,22,45.34,24.27a.3.3,0,0,0,.07.44c.16.14.42.23.44.41s-.16.37-.25.55l-.21.39c-.46-.39-.92-.8-1.4-1.17-.14-.09-.05-.16,0-.23.71-1.47,1.4-2.91,2.14-4.38.14-.25.11-.37-.14-.5L42.26,17.6c-.19-.12-.25-.1-.37.09-.9,1.35-1.8,2.68-2.69,4a.29.29,0,0,1-.42.11,23.53,23.53,0,0,0-5-1.44,4.28,4.28,0,0,0-.81-.12c-.21,0-.28-.09-.28-.27,0-.65-.09-1.31-.13-2l-.21-2.9c0-.16-.07-.18-.23-.18-1.5,0-3,0-4.47,0-.21,0-.25.06-.25.25l-.21,3.3-.07,1.45c0,.23,0,.34-.32.36a24.31,24.31,0,0,0-5.78,1.59c-.19.07-.25,0-.35-.12-.94-1.35-1.86-2.68-2.76-4-.12-.16-.18-.19-.37-.09l-3.89,2.2c-.16.09-.14.16-.07.3.76,1.51,1.5,3,2.26,4.52.07.13.07.18-.07.27A24.11,24.11,0,0,0,12.62,28c-.35.41-.69.83-1,1.26-.11.16-.2.14-.36.07L6.7,27.14c-.18-.09-.25-.07-.37.11Q5.24,29.16,4.1,31c-.12.21-.07.28.09.39,1.45,1,2.9,1.93,4.35,2.87.14.09.17.14.12.3a23.85,23.85,0,0,0-1.29,4.93c0,.27-.09.55-.12.82,0,.1,0,.12-.13.14-.86,0-1.71.12-2.56.16l-2.95.23a.14.14,0,0,0-.16.16c0,1.54,0,3.05,0,4.59,0,.14,0,.16.16.16l3.8.23,1.8.12a.2.2,0,0,1,.23.18A22.62,22.62,0,0,0,9,51.83a.15.15,0,0,1-.07.22L4.21,55.24c-.13.1-.16.16-.06.3.73,1.26,1.45,2.55,2.16,3.83.12.21.21.23.44.14,1.68-.85,3.38-1.67,5.06-2.52a.31.31,0,0,1,.44.07,24.44,24.44,0,0,0,2.44,2.54c.49.42,1,.83,1.48,1.22a.23.23,0,0,1,.09.32c-.21.41-.42.83-.6,1.24-.07.14-.14.21-.3.18s-.51,0-.76,0-.23,0-.11-.2l.48-1c0-.09,0-.14-.05-.23a22.53,22.53,0,0,1-2.9-2.8.3.3,0,0,0-.41-.09l-5.3,2.62c-.14.07-.23.11-.32-.07l-3.18-5.6c-.12-.18-.09-.25.09-.37C4.47,53.8,6,52.74,7.6,51.71a.29.29,0,0,0,.14-.41,18.93,18.93,0,0,1-1.13-3.88c0-.18-.09-.27-.32-.3-1.5-.07-3-.18-4.49-.27-.37,0-.76-.07-1.13-.07-.21,0-.26-.09-.26-.3,0-2,0-4,.07-6.06,0-.59,0-.57.63-.62.94,0,1.86-.13,2.78-.2L6,39.46c.23,0,.39,0,.44-.34a21.48,21.48,0,0,1,1-4.2c.07-.19-.07-.21-.16-.28-1.4-.94-2.79-1.86-4.19-2.77-.16-.12-.42-.19-.44-.33s.16-.32.25-.48c1-1.69,2-3.37,3-5.07.23-.39.23-.39.6-.2,1.52.73,3,1.46,4.53,2.2.12,0,.17.07.26,0a24.64,24.64,0,0,1,3.22-3.32c.14-.14.07-.21,0-.3-.76-1.54-1.52-3.08-2.3-4.61-.07-.16-.07-.23.09-.32Z"/><path class="cls-1" d="M70.77,38.15c.39.74.76,1.45,1.15,2.16q4.93,9.28,9.86,18.58C82.33,60,82.88,61,83.46,62c.11.21.09.28-.16.28H79.36a.38.38,0,0,1-.37-.21c-2.88-5.14-5.73-10.25-8.61-15.37l-1.87-3.33a.5.5,0,0,1,0-.5c.74-1.54,1.52-3.08,2.21-4.64C70.7,38.22,70.72,38.2,70.77,38.15Z"/><path d="M19.9,24.07a3.18,3.18,0,0,1,.43,1,14.1,14.1,0,0,0-2.25,1.4,19,19,0,0,0-3.46,3.17,20.29,20.29,0,0,0-3.36,5.43,19.69,19.69,0,0,0-1.33,5,21.62,21.62,0,0,0-.17,4,19.64,19.64,0,0,0,2.38,8.25A20.06,20.06,0,0,0,24,62a13.53,13.53,0,0,0,1.88.45c.05,0,.07,0,.07.1l-.2,0H22.57a.9.9,0,0,1-.37-.07,21.45,21.45,0,0,1-6.75-4.22,21.17,21.17,0,0,1-4.93-6.81,20.67,20.67,0,0,1-1.61-5.3,21.5,21.5,0,0,1-.27-4.39,21.21,21.21,0,0,1,2.51-9.06,21.66,21.66,0,0,1,4.07-5.34A23.4,23.4,0,0,1,19.9,24.07Z"/><path d="M32.86,55c.76.87,1.52,1.74,2.26,2.61s1.73,2,2.58,3a.51.51,0,0,1,.16.23c-.3.53-.6,1-.9,1.6-.07.12-.11.19-.25.19h-7.9C30.17,60,31.5,57.49,32.86,55Z"/><path class="cls-1" d="M66.07,47.76l2,3.93c1.77,3.42,3.54,6.86,5.32,10.28.16.32.16.32-.19.32h-2a.38.38,0,0,1-.39-.23c-2-3.7-4-7.41-6-11.11a.46.46,0,0,1-.05-.43c.44-.87.85-1.75,1.27-2.62C66,47.88,66,47.86,66.07,47.76Z"/><path d="M21.51,24.46a8,8,0,0,1-.74-.81,20.44,20.44,0,0,1,4.77-1.6,20.08,20.08,0,0,1,5.78-.39,20.83,20.83,0,0,1,7.25,1.79,22,22,0,0,1,5.85,3.85c.16.16.23.28.1.48s-.23.46-.37.71a22.63,22.63,0,0,0-2-1.69,20.05,20.05,0,0,0-7.65-3.61,20.77,20.77,0,0,0-5.68-.5A19,19,0,0,0,21.51,24.46Z"/><path d="M24.39,34.23a1.31,1.31,0,0,1,.3.64,8.71,8.71,0,0,0-2.4,2,9.59,9.59,0,0,0-2.14,8.24,9.68,9.68,0,0,0,5,6.84,9.84,9.84,0,0,0,4.56,1.23,7.46,7.46,0,0,0,1.64-.11.43.43,0,0,1,.23.28c-.14.5-.56.45-1,.48a10.23,10.23,0,0,1-5.9-1.36,10.54,10.54,0,0,1-3.22-15.62A11.18,11.18,0,0,1,24.39,34.23Z"/><path d="M91.93,67.52A3.7,3.7,0,0,1,93.5,66.1a2.27,2.27,0,0,1,.71-.23c.19,0,.19,0,.19.18v5.57c0,.16-.05.19-.19.19-.62,0-.62,0-.62-.62V67.06a2,2,0,0,0-1,1.26A4.78,4.78,0,0,0,92.39,70c0,.2,0,.29-.27.29-.53,0-.53,0-.56-.52a4.53,4.53,0,0,0-.32-1.84,1.68,1.68,0,0,0-.87-.85v4.5c0,.16,0,.23-.21.23-.6,0-.6,0-.6-.6v-5c0-.41,0-.41.42-.3a3.38,3.38,0,0,1,1.84,1.36A.48.48,0,0,0,91.93,67.52Z"/><path d="M52,72a3.25,3.25,0,0,1-3.18-3.32A3.31,3.31,0,0,1,52,65.61,3.2,3.2,0,1,1,52,72Zm0-5.55a2.35,2.35,0,0,0-2.4,2.34,2.38,2.38,0,0,0,2.4,2.39,2.37,2.37,0,0,0,0-4.73Z"/><path d="M5.73,67.7a2.33,2.33,0,0,0-2.34-1.24A2.3,2.3,0,0,0,1.4,68a2.22,2.22,0,0,0,.42,2.41A2.38,2.38,0,0,0,4,71.17c.21,0,.3-.12.28-.33,0-.62,0-1.23,0-1.83,0-.16,0-.23.21-.23.62,0,.62,0,.62.62v2a.3.3,0,0,1-.21.32,3.18,3.18,0,1,1-1.13-6.1,3.35,3.35,0,0,1,1.85.66.38.38,0,0,1,.16.33C5.73,66.94,5.73,67.29,5.73,67.7Z"/><path d="M76.18,68.83V66.1c0-.19,0-.23.23-.23.6,0,.6,0,.6.57v1.72c0,.23,0,.34.3.32.51,0,1,0,1.54,0,.23,0,.3,0,.3-.27,0-.69,0-1.38,0-2.09,0-.21,0-.28.25-.28.56,0,.56,0,.56.58v1.81c0,.18,0,.25.25.25s.53,0,.81,0,.16,0,.16.16c0,.64,0,.64-.6.64s-.62,0-.62.6v1.7c0,.14,0,.18-.19.2-.64,0-.64,0-.64-.61V69.51c0-.2-.07-.25-.25-.25-.53,0-1.09,0-1.62,0-.2,0-.25,0-.25.25,0,.67,0,1.36,0,2,0,.19-.05.25-.23.25-.6,0-.6,0-.6-.57Z"/><path d="M15,69.24a1.39,1.39,0,0,0,1.31-1,1.24,1.24,0,0,0-1.18-1.49c-.16,0-.16.09-.16.2v4.59c0,.19,0,.28-.25.25-.58,0-.58,0-.58-.57V66.14c0-.25.07-.3.3-.27a3,3,0,0,1,2.05.66,2,2,0,0,1-.27,3.12c-.16.12-.16.16-.07.32a3.42,3.42,0,0,0,1.22,1.2c.16.09.11.22.11.34,0,.62,0,.62-.53.32a4,4,0,0,1-1.82-2.2C15,69.49,15,69.38,15,69.24Z"/><path d="M25.68,68.21V66.1c0-.19,0-.28.25-.28.58,0,.58,0,.58.6v3.74a1,1,0,1,0,1.93,0V66.21c0-.39,0-.39.39-.39h.23c.14,0,.19,0,.19.18,0,1.43,0,2.87,0,4.29A1.76,1.76,0,0,1,27.43,72a1.78,1.78,0,0,1-1.75-1.81Z"/><path d="M37.54,68.8V66.1c0-.19,0-.26.23-.23a3.66,3.66,0,0,1,1.49.25,2,2,0,0,1,1.25,2.22A2.18,2.18,0,0,1,38.57,70c-.18,0-.23.07-.23.25,0,.44,0,.9,0,1.33,0,.14,0,.19-.16.19-.64,0-.64,0-.64-.62Zm.83-.82v1c0,.16.07.19.2.19A1.33,1.33,0,0,0,39.75,68a1.31,1.31,0,0,0-1.18-1.24c-.13,0-.2,0-.2.18Z"/><path d="M29.68,33.38a3.89,3.89,0,0,1-.57-.64,10.32,10.32,0,0,1,7.69,2.5A11.28,11.28,0,0,1,39,37.83a.52.52,0,0,1,0,.69c-.07.09-.12.21-.19.32A10,10,0,0,0,29.68,33.38Z"/><path class="cls-1" d="M65.5,62.29h-1c-.16,0-.19-.09-.25-.21C63.47,60.7,62.71,59.35,62,58c-.16-.32-.48-.62-.46-.94a2.85,2.85,0,0,1,.44-.94c0-.09.09-.16.16-.32C63.24,58,64.34,60.08,65.5,62.29Z"/><path class="cls-1" d="M38.94,61.94S39,62,39,62l0,0S38.94,62,38.94,61.94Z"/><path class="cls-1" d="M38.92,62l-.05,0,0,0S38.92,61.92,38.92,62Z"/></svg>